<svg xmlns="http://www.w3.org/2000/svg" width="20" height="20" viewBox="0 0 20 20" fill="none"><path clip-rule="evenodd" d="M13.81 15.714V10a1.904 1.904 0 0 0-1.905-1.905H3.333A1.905 1.905 0 0 0 1.43 10v5.714a1.905 1.905 0 0 0 1.904 1.905h8.572a1.905 1.905 0 0 0 1.905-1.905Z" stroke="url(#a)" stroke-linecap="round" stroke-linejoin="round"/><path d="M15.714 15.714V9.052a2.857 2.857 0 0 0-2.857-2.857h-.005l-8.566.015" stroke="url(#b)" stroke-linecap="round" stroke-linejoin="round"/><path d="M17.62 13.81V8.101a3.81 3.81 0 0 0-3.81-3.81h-.007l-7.613.013" stroke="url(#c)" stroke-linecap="round" stroke-linejoin="round"/><defs><linearGradient id="a" x1="1.591" y1="12.046" x2="13.577" y2="12.676" gradientUnits="userSpaceOnUse"><stop stop-color="#FF5956"/><stop offset="1" stop-color="#EE1E38"/></linearGradient><linearGradient id="b" x1="4.436" y1="10.144" x2="15.504" y2="10.682" gradientUnits="userSpaceOnUse"><stop stop-color="#FF5956"/><stop offset="1" stop-color="#EE1E38"/></linearGradient><linearGradient id="c" x1="6.34" y1="8.241" x2="17.409" y2="8.778" gradientUnits="userSpaceOnUse"><stop stop-color="#FF5956"/><stop offset="1" stop-color="#EE1E38"/></linearGradient></defs></svg>