<svg xmlns="http://www.w3.org/2000/svg" width="14" height="14" viewBox="0 0 14 14" fill="none"><path d="M8.01 2.048 9.035 4.1c.14.286.513.56.828.612l1.861.31c1.19.198 1.47 1.061.613 1.913L10.89 8.383c-.245.245-.38.717-.303 1.055l.414 1.791c.326 1.418-.426 1.966-1.68 1.225l-1.744-1.032c-.315-.187-.835-.187-1.155 0l-1.745 1.032c-1.248.741-2.006.187-1.68-1.225l.415-1.79c.075-.339-.059-.811-.304-1.056L1.663 6.936c-.852-.852-.578-1.715.612-1.913l1.86-.31c.31-.052.683-.326.823-.612l1.027-2.053c.56-1.115 1.47-1.115 2.024 0Z" stroke="#FFAD49" stroke-width="1.5" stroke-linecap="round" stroke-linejoin="round"/></svg>